<svg xmlns="http://www.w3.org/2000/svg" xmlns:xlink="http://www.w3.org/1999/xlink" width="1242" height="333" viewBox="0 0 1242 333"><defs><path id="a" d="M896 129.619V102h62v200h-62v-27.619C878.055 291.493 853.754 302 827 302c-55.228 0-100-44.772-100-100s44.772-100 100-100c26.754 0 51.055 10.507 69 27.619zM248 102V2h-62v300h62V164h62v138h62V2h-62v100h-62zM31 133h62l31 200H0l31-200zM19.653 62.653l53.694-31 31 53.694-53.694 31-31-53.694zM503 302c-55.228 0-100-44.772-100-100s44.772-100 100-100 100 44.772 100 100-44.772 100-100 100zm0-62c20.987 0 38-17.013 38-38s-17.013-38-38-38-38 17.013-38 38 17.013 38 38 38zM634 2.426h62v300h-62v-300zM827 240c20.987 0 38-17.013 38-38s-17.013-38-38-38-38 17.013-38 38 17.013 38 38 38zm233.847-50.869L1134 .426l107.387 62-126.847 157.705-53.693-31zm-44.997 77.943l31-53.694 53.694 31-31 53.694-53.694-31z"/><linearGradient id="b" x1="14.171%" x2="80.314%" y1="18.573%" y2="76.192%"><stop offset="0%" stop-color="#006FFF"/><stop offset="100%" stop-color="#1BE6FF"/></linearGradient></defs><g fill="none" fill-rule="evenodd"><mask id="c" fill="#fff"><use xlink:href="#a"/></mask><path fill="url(#b)" mask="url(#c)" d="M-275-118h1761v546H-275z"/></g></svg>