<svg xmlns="http://www.w3.org/2000/svg" width="1242" height="333" viewBox="0 0 1242 333"><path fill="#FFF" fill-rule="evenodd" d="M896 127.619V100h62v200h-62v-27.619C878.055 289.493 853.754 300 827 300c-55.228 0-100-44.772-100-100s44.772-100 100-100c26.754 0 51.055 10.507 69 27.619zM248 100V0h-62v300h62V162h62v138h62V0h-62v100h-62zm255 200c-55.228 0-100-44.772-100-100s44.772-100 100-100 100 44.772 100 100-44.772 100-100 100zm0-62c20.987 0 38-17.013 38-38s-17.013-38-38-38-38 17.013-38 38 17.013 38 38 38zM634 0h62v300h-62V0zm193 238c20.987 0 38-17.013 38-38s-17.013-38-38-38-38 17.013-38 38 17.013 38 38 38zM31 133h62l31 200H0l31-200zM20 63l53.694-31 31 53.694-53.694 31L20 63zm1040.847 125.705L1134 0l107.387 62-126.847 157.705-53.693-31zM1016 266.694L1047 213l53.694 31-31 53.694-53.694-31z"/></svg>